<?xml version="1.0" encoding="UTF-8"?>
<svg width="22px" height="22px" viewBox="0 0 22 22" version="1.1" xmlns="http://www.w3.org/2000/svg" xmlns:xlink="http://www.w3.org/1999/xlink">
    <title>控件组</title>
    <g id="页面-1" stroke="none" stroke-width="1" fill="none" fill-rule="evenodd">
        <g id="介绍" transform="translate(-1431.000000, -974.000000)" fill-rule="nonzero">
            <g id="内容" transform="translate(665.000000, 115.000000)">
                <g id="内容概要" transform="translate(0.000000, 646.000000)">
                    <g id="编组-6" transform="translate(0.000000, 44.000000)">
                        <g id="编组-3备份-5" transform="translate(559.000000, 143.000000)">
                            <g id="编组-10" transform="translate(26.000000, 26.000000)">
                                <g id="控件组" transform="translate(181.000000, 0.000000)">
                                    <rect id="矩形" fill="#000000" opacity="0" x="0" y="0" width="22" height="22"></rect>
                                    <path d="M0.869571072,4.81314598 C0.64591952,4.83894292 0.424031398,4.74434306 0.258480085,4.55261322 C0.0929287724,4.36088339 -0.000923276249,4.0898153 -1.33989722e-05,3.80607813 C0.0079091745,3.25705355 0.362479131,2.81722984 0.797107386,2.81732057 L5.21739219,2.81732057 C5.64961454,2.81732057 5.99994272,3.26000243 5.99994272,3.80607813 C6.00007183,4.35519348 5.6519486,4.80316207 5.21739219,4.81314598 L0.869571072,4.81314598 Z M9.76056339,4.81732057 C9.33824752,4.80731581 9,4.35841021 9,3.80814629 C9,3.26092838 9.34051583,2.81732057 9.76056339,2.81732057 L21.2253521,2.81732057 C21.6477378,2.81722965 21.9923203,3.25797332 22,3.80814629 C22,4.36549787 21.6531783,4.81732057 21.2253521,4.81732057 L9.76056339,4.81732057 Z" id="形状" fill="#008BFF"></path>
                                    <path d="M5.20782395,19 L0.806845964,19 C0.366903903,19.0000909 0.00799894067,18.5593473 0,18.0091743 C0,17.7415246 0.0850067415,17.4848372 0.236319712,17.2955803 C0.387632682,17.1063234 0.59285711,17 0.806845964,17 L5.20782395,17 C5.6476933,17.0100048 6.00007271,17.4589104 6,18.0091743 C6,18.5563922 5.6453307,19 5.20782395,19 L5.20782395,19 Z M21.2253521,19 L9.76056339,19 C9.34051583,19 9,18.5563922 9,18.0091743 C9,17.4589104 9.33824752,17.0100048 9.76056339,17 L21.2253521,17 C21.6531783,17 22,17.4518227 22,18.0091743 C21.9923203,18.5593473 21.6477378,19.0000909 21.2253521,19 L21.2253521,19 Z" id="形状" fill="#008BFF"></path>
                                    <path d="M16.8813492,11.9908829 L21.1186508,11.9908829 C21.4185604,12.0432965 21.7148139,11.8667208 21.8777774,11.5384214 C22.0407409,11.210122 22.0407409,10.789878 21.8777774,10.4615786 C21.7148139,10.1332792 21.4185604,9.95670349 21.1186508,10.0091171 L16.8813492,10.0091171 C16.5814396,9.95670349 16.2851861,10.1332792 16.1222226,10.4615786 C15.9592591,10.789878 15.9592591,11.210122 16.1222226,11.5384214 C16.2851861,11.8667208 16.5814396,12.0432965 16.8813492,11.9908829 L16.8813492,11.9908829 Z M0.877912571,11.9908829 L12.3302935,11.9908829 C12.7139058,11.9235787 13,11.5002801 13,11 C13,10.4997199 12.7139058,10.0764213 12.3302935,10.0091171 L0.877912571,10.0091171 C0.579172393,9.95670349 0.284074115,10.1332792 0.121746049,10.4615786 C-0.0405820164,10.789878 -0.0405820164,11.210122 0.121746049,11.5384214 C0.284074115,11.8667208 0.579172393,12.0432965 0.877912571,11.9908829 L0.877912571,11.9908829 Z" id="形状" fill="#008BFF"></path>
                                    <path d="M7.65875,15.3175 C9.17753306,15.3175 10.40875,16.5487169 10.40875,18.0675 C10.40875,19.5862831 9.17753306,20.8175 7.65875,20.8175 C6.13996694,20.8175 4.90875,19.5862831 4.90875,18.0675 C4.90875,16.5487169 6.13996694,15.3175 7.65875,15.3175 Z M14.4925,8.25 C16.0112831,8.25 17.2425,9.48121694 17.2425,11 C17.2425,12.5187831 16.0112831,13.75 14.4925,13.75 C12.9737169,13.75 11.7425,12.5187831 11.7425,11 C11.7425,9.48121694 12.9737169,8.25 14.4925,8.25 Z M7.65875,0.9625 C9.17753306,0.9625 10.40875,2.19371694 10.40875,3.7125 C10.40875,5.23128306 9.17753306,6.4625 7.65875,6.4625 C6.13996694,6.4625 4.90875,5.23128306 4.90875,3.7125 C4.90875,2.19371694 6.13996694,0.9625 7.65875,0.9625 Z" id="形状" fill="#7AC6FF"></path>
                                </g>
                            </g>
                        </g>
                    </g>
                </g>
            </g>
        </g>
    </g>
</svg>