<?xml version="1.0" encoding="UTF-8"?>
<svg width="24px" height="24px" viewBox="0 0 24 24" version="1.1" xmlns="http://www.w3.org/2000/svg" xmlns:xlink="http://www.w3.org/1999/xlink">
    <title>全局配置</title>
    <g id="页面-1" stroke="none" stroke-width="1" fill="none" fill-rule="evenodd">
        <g id="介绍" transform="translate(-874.000000, -830.000000)" fill-rule="nonzero">
            <g id="内容" transform="translate(665.000000, 115.000000)">
                <g id="内容概要" transform="translate(0.000000, 646.000000)">
                    <g id="编组-6" transform="translate(0.000000, 44.000000)">
                        <g id="编组-3">
                            <g id="编组-7" transform="translate(26.000000, 25.000000)">
                                <g id="全局配置" transform="translate(183.000000, 0.000000)">
                                    <rect id="矩形" fill="#000000" opacity="0" x="0" y="0" width="24" height="24"></rect>
                                    <path d="M18.9994375,9.9414375 L21.7265625,11.5167188 L21.7265625,18.283125 L15.8664844,21.6665625 L13.4414375,20.2654375 L15.2246033,19.2909593 L15.224,15.6001165 L19,13.3521847 L18.9994375,9.9414375 Z M4.9994375,9.9414375 L5,13.3521847 L8.747,15.5831165 L8.74778732,19.2909593 L10.5514375,20.2694375 L8.13351563,21.6665625 L2.2734375,18.283125 L2.2734375,11.5167188 L4.9994375,9.9414375 Z M12,2.3334375 L17.8600781,5.716875 L17.8594375,7.8974375 L15.8666016,6.66311648 L12,8.90011648 L8.13339844,6.66311648 L6.1394375,7.8974375 L6.13992188,5.716875 L12,2.3334375 Z" id="形状结合" fill="#008BFF"></path>
                                    <path d="M15.8664844,8.13351563 L17.8600781,9.28429688 L17.8600781,12.4832813 L13.9929219,14.7145156 L13.9933594,18.283125 L12,19.4341406 L10.0066406,18.283125 L10.0059219,14.7145156 L6.13992187,12.4832813 L6.13992187,9.28429688 L8.13351562,8.13351563 L12,10.3657031 L15.8664844,8.13351563 Z" id="形状结合" fill="#7AC6FF"></path>
                                </g>
                            </g>
                        </g>
                    </g>
                </g>
            </g>
        </g>
    </g>
</svg>