<?xml version="1.0" encoding="UTF-8"?>
<svg width="22px" height="22px" viewBox="0 0 22 22" version="1.1" xmlns="http://www.w3.org/2000/svg" xmlns:xlink="http://www.w3.org/1999/xlink">
    <title>导航</title>
    <g id="页面-1" stroke="none" stroke-width="1" fill="none" fill-rule="evenodd">
        <g id="介绍" transform="translate(-875.000000, -974.000000)" fill-rule="nonzero">
            <g id="内容" transform="translate(665.000000, 115.000000)">
                <g id="内容概要" transform="translate(0.000000, 646.000000)">
                    <g id="编组-6" transform="translate(0.000000, 44.000000)">
                        <g id="编组-3备份-3" transform="translate(0.000000, 143.000000)">
                            <g id="导航" transform="translate(210.000000, 26.000000)">
                                <rect id="矩形" fill="#000000" opacity="0" x="0" y="0" width="22" height="22"></rect>
                                <path d="M19.628125,2.9046875 L8.16835937,2.9046875 C7.59472656,2.9046875 7.21445312,3.28710938 7.21445312,3.85859375 L7.21445312,4.8125 C7.21445312,5.38613281 7.596875,5.76640625 8.16835937,5.76640625 L19.6259766,5.76640625 C20.1996094,5.76640625 20.5798918,5.38398437 20.5798918,4.8125 L20.5798918,3.85859375 C20.5820312,3.28710938 20.1996094,2.9046875 19.628125,2.9046875 Z M19.628125,9.58847656 L8.16835937,9.58847656 C7.59472656,9.58847656 7.21445312,9.97089844 7.21445312,10.5423828 L7.21445312,11.4962891 C7.21445312,12.0699219 7.596875,12.4501953 8.16835937,12.4501953 L19.6259766,12.4501953 C20.1996094,12.4501953 20.5798918,12.0677734 20.5798918,11.4962891 L20.5798918,10.5423828 C20.5820312,9.97089844 20.1996094,9.58847656 19.628125,9.58847656 L19.628125,9.58847656 Z M19.628125,16.2722656 L8.16835937,16.2722656 C7.59472656,16.2722656 7.21445312,16.6546875 7.21445312,17.2261719 L7.21445312,18.1800781 C7.21445312,18.7537109 7.596875,19.1339844 8.16835937,19.1339844 L19.6259766,19.1339844 C20.1996094,19.1339844 20.5798918,18.7515625 20.5798918,18.1800781 L20.5798918,17.2261719 C20.5820312,16.6546875 20.1996094,16.2722656 19.628125,16.2722656 Z" id="形状" fill="#008BFF"></path>
                                <path d="M3.39453125,16.2722656 C3.87363281,16.2722656 4.35058594,16.7492188 4.34844473,17.2261719 L4.34844473,17.2261719 L4.34844473,18.1800781 C4.34844473,18.6570313 3.87148437,19.1339844 3.39453125,19.1339844 L3.39453125,19.1339844 L2.440625,19.1339844 C1.96367187,19.1339844 1.48671875,18.6570313 1.48671875,18.1800781 L1.48671875,18.1800781 L1.48671875,17.2261719 C1.48671875,16.7492188 1.96367187,16.2722656 2.440625,16.2722656 L2.440625,16.2722656 Z M3.39453125,9.58847656 C3.87363281,9.58847656 4.35058594,10.0654297 4.34844473,10.5423828 L4.34844473,10.5423828 L4.34844473,11.4962891 C4.34844473,11.9732422 3.87148437,12.4501953 3.39453125,12.4501953 L3.39453125,12.4501953 L2.440625,12.4501953 C1.96367187,12.4501953 1.48671875,11.9732422 1.48671875,11.4962891 L1.48671875,11.4962891 L1.48671875,10.5423828 C1.48671875,10.0654297 1.96367187,9.58847656 2.440625,9.58847656 L2.440625,9.58847656 Z M3.39453125,2.9046875 C3.87363281,2.9046875 4.35058594,3.38164063 4.34844473,3.85859375 L4.34844473,3.85859375 L4.34844473,4.8125 C4.34844473,5.28945313 3.87148437,5.76640625 3.39453125,5.76640625 L3.39453125,5.76640625 L2.440625,5.76640625 C1.96367187,5.76640625 1.48671875,5.28945313 1.48671875,4.8125 L1.48671875,4.8125 L1.48671875,3.85859375 C1.48671875,3.38164063 1.96367187,2.9046875 2.440625,2.9046875 L2.440625,2.9046875 Z" id="形状结合" fill="#7AC6FF"></path>
                            </g>
                        </g>
                    </g>
                </g>
            </g>
        </g>
    </g>
</svg>