<?xml version="1.0" encoding="UTF-8"?>
<svg width="20px" height="20px" viewBox="0 0 20 20" version="1.1" xmlns="http://www.w3.org/2000/svg" xmlns:xlink="http://www.w3.org/1999/xlink">
    <title>表格</title>
    <g id="页面-1" stroke="none" stroke-width="1" fill="none" fill-rule="evenodd">
        <g id="介绍" transform="translate(-1432.000000, -832.000000)" fill-rule="nonzero">
            <g id="内容" transform="translate(665.000000, 115.000000)">
                <g id="内容概要" transform="translate(0.000000, 646.000000)">
                    <g id="编组-6" transform="translate(0.000000, 44.000000)">
                        <g id="编组-3备份-2" transform="translate(559.000000, 0.000000)">
                            <g id="编组-9" transform="translate(26.000000, 27.000000)">
                                <g id="表格" transform="translate(182.000000, 0.000000)">
                                    <rect id="矩形" fill="#000000" opacity="0" x="0" y="0" width="20" height="20"></rect>
                                    <polygon id="路径" fill="#008BFF" points="0 0 20 0 20 5.71428572 0 5.71428572"></polygon>
                                    <polygon id="路径" fill="#7AC6FF" points="0 7.14285715 5.71428572 7.14285715 5.71428572 12.8571429 0 12.8571429"></polygon>
                                    <polygon id="路径" fill="#7AC6FF" points="0 14.2857143 5.71428572 14.2857143 5.71428572 20 0 20"></polygon>
                                    <path d="M7.14285715,7.14285715 L12.8571429,7.14285715 L12.8571429,12.8571429 L7.14285715,12.8571429 L7.14285715,7.14285715 Z M7.14285715,14.2857143 L12.8571429,14.2857143 L12.8571429,20 L7.14285715,20 L7.14285715,14.2857143 Z" id="形状" fill="#7AC6FF"></path>
                                    <polygon id="路径" fill="#7AC6FF" points="14.2857143 7.14285715 20 7.14285715 20 12.8571429 14.2857143 12.8571429"></polygon>
                                    <polygon id="路径" fill="#008BFF" points="14.2857143 14.2857143 20 14.2857143 20 20 14.2857143 20"></polygon>
                                </g>
                            </g>
                        </g>
                    </g>
                </g>
            </g>
        </g>
    </g>
</svg>