<?xml version="1.0" encoding="UTF-8"?>
<svg width="20px" height="20px" viewBox="0 0 20 20" version="1.1" xmlns="http://www.w3.org/2000/svg" xmlns:xlink="http://www.w3.org/1999/xlink">
    <title>数据</title>
    <g id="页面-1" stroke="none" stroke-width="1" fill="none" fill-rule="evenodd">
        <g id="介绍" transform="translate(-1154.000000, -832.000000)" fill-rule="nonzero">
            <g id="内容" transform="translate(665.000000, 115.000000)">
                <g id="内容概要" transform="translate(0.000000, 646.000000)">
                    <g id="编组-6" transform="translate(0.000000, 44.000000)">
                        <g id="编组-3备份" transform="translate(280.000000, 0.000000)">
                            <g id="编组-8" transform="translate(26.000000, 27.000000)">
                                <g id="数据" transform="translate(183.000000, 0.000000)">
                                    <rect id="矩形" fill="#000000" opacity="0" x="0" y="0" width="20" height="20"></rect>
                                    <path d="M19.556401,9.44008456 L10.4431197,9.44008456 L10.4431197,0.322897057 C12.8239791,0.465475182 15.0583541,1.46352206 16.7380416,3.14320956 C18.415776,4.82094393 19.4138229,7.05531893 19.556401,9.44008456 Z" id="路径" fill="#7AC6FF"></path>
                                    <path d="M2.35742188,16.6738281 C0.837890625,14.9179688 0,12.6894531 0,10.3828125 C0,7.8125 1,5.3984375 2.81835938,3.58203125 C4.44921875,1.95117188 6.61914062,0.96484375 8.9296875,0.798828125 L8.9296875,10.1191406 L2.35742188,16.6738281 Z M9.62304688,20 C12.1914063,20 14.6035156,19 16.4179688,17.1855469 C18.0527344,15.5507812 19.0390625,13.3808594 19.203125,11.0703125 L9.92578125,11.0410156 L3.32617188,17.6425781 C5.08398438,19.1640625 7.3125,20 9.6171875,20 L9.62304688,20 Z" id="形状" fill="#008BFF"></path>
                                </g>
                            </g>
                        </g>
                    </g>
                </g>
            </g>
        </g>
    </g>
</svg>